# xmcd
#
# Track frame offsets:
#	150
#	10292
#	34334
#	50444
#	67620
#	83478
#	104779
#	131205
#	148164
#	167562
#	194267
#	209985
#	243888
#	268801
#
# Disc length: 4433 seconds
#
# Revision: 0
# Processed by: cddbd v1.4PL0 Copyright (c) Steve Scherf et al.
# Submitted via: dBpowerAMP V4.0
#
DISCID=d0114f0e
DTITLE=Lynard Skynyrd - Lynard Skynyrd
DYEAR=1900
DGENRE=Country
TTITLE0=Down south jukin'
TTITLE1=Gimme three steps
TTITLE2=What's your name
TTITLE3=You got that right
TTITLE4=Gimme back my bullets
TTITLE5=Sweet home Alabama
TTITLE6=That smeel
TTITLE7=I ain't the one
TTITLE8=Whiskey rock - a - roller
TTITLE9=Simple man
TTITLE10=I know a little
TTITLE11=Thesday's gone
TTITLE12=Comin' home
TTITLE13=Free bird
EXTD=My Name Is Sao
EXTT0=
EXTT1=
EXTT2=
EXTT3=
EXTT4=
EXTT5=
EXTT6=
EXTT7=
EXTT8=
EXTT9=
EXTT10=
EXTT11=
EXTT12=
EXTT13=
PLAYORDER=
